# xmcd CD database file
#
# Track frame offsets:
#	150
#	12170
#	23115
#	34031
#	46381
#	58786
#	71620
#	83072
#	95671
#	108196
#	119779
#	133008
#	145122
#	158020
#	169759
#	180844
#	191750
#	204847
#	217590
#	230658
#	243977
#	255921
#	270318
#	281951
#	295531
#
# Disc length: 4121 seconds
#
# Revision: 0
# Processed by: cddbd v1.5.1PL0 Copyright (c) Steve Scherf et al.
# Submitted via: CDex 1.51
#
DISCID=56101719
DTITLE=hank williams, snr. - his greatest hits Volume2
DYEAR=1900
DGENRE=Country
TTITLE0=long gone lonesome blues
TTITLE1=why don't you love me
TTITLE2=moanin' the blues
TTITLE3=howlin' at the moon
TTITLE4=cold, cold heart
TTITLE5=may you never be alone
TTITLE6=nobody's lonesome for me
TTITLE7=i'm so lonesome i could cry
TTITLE8=they'll never take her love from me
TTITLE9=my bucket's got a hole in it
TTITLE10=wedding bells
TTITLE11=just waitin'
TTITLE12=everything's okay
TTITLE13=dear john
TTITLE14=no, no joe
TTITLE15=i can't help it
TTITLE16=a house without love
TTITLE17=i just don't like this kind of livin'
TTITLE18=jesus remembered me
TTITLE19=help me understand
TTITLE20=why should we try anymore
TTITLE21=men with broken hearts
TTITLE22=my son calls another man daddy
TTITLE23=too many parties and too many pals
TTITLE24=beyond the sunset
EXTD=
EXTT0=
EXTT1=
EXTT2=
EXTT3=
EXTT4=
EXTT5=
EXTT6=
EXTT7=
EXTT8=
EXTT9=
EXTT10=
EXTT11=
EXTT12=
EXTT13=
EXTT14=
EXTT15=
EXTT16=
EXTT17=
EXTT18=
EXTT19=
EXTT20=
EXTT21=
EXTT22=
EXTT23=
EXTT24=
PLAYORDER=
